<?xml version="1.0" encoding="UTF-8" standalone="no"?>
<!-- Created with Inkscape (http://www.inkscape.org/) -->

<svg
   width="188mm"
   height="56mm"
   viewBox="0 0 188 56"
   version="1.1"
   id="svg5"
   xml:space="preserve"
   inkscape:version="1.3.2 (091e20e, 2023-11-25, custom)"
   sodipodi:docname="logo.svg"
   inkscape:export-filename="dev.png"
   inkscape:export-xdpi="96"
   inkscape:export-ydpi="96"
   xmlns:inkscape="http://www.inkscape.org/namespaces/inkscape"
   xmlns:sodipodi="http://sodipodi.sourceforge.net/DTD/sodipodi-0.dtd"
   xmlns="http://www.w3.org/2000/svg"
   xmlns:svg="http://www.w3.org/2000/svg"><sodipodi:namedview
     id="namedview7"
     pagecolor="#ffffff"
     bordercolor="#000000"
     borderopacity="0.25"
     inkscape:showpageshadow="2"
     inkscape:pageopacity="0.0"
     inkscape:pagecheckerboard="0"
     inkscape:deskcolor="#d1d1d1"
     inkscape:document-units="mm"
     showgrid="false"
     inkscape:zoom="1.1044931"
     inkscape:cx="307.38082"
     inkscape:cy="158.44372"
     inkscape:window-width="1920"
     inkscape:window-height="991"
     inkscape:window-x="-9"
     inkscape:window-y="-9"
     inkscape:window-maximized="1"
     inkscape:current-layer="layer1"
     showguides="true"><sodipodi:guide
       position="161.25605,71.216701"
       orientation="0,-1"
       id="guide2"
       inkscape:locked="false" /></sodipodi:namedview><defs
     id="defs2" /><g
     inkscape:label="Camada 1"
     inkscape:groupmode="layer"
     id="layer1"><g
       id="g1"
       transform="translate(-10.470936,-16.322835)"><path
         style="font-weight:bold;font-size:13.4056px;font-family:Comfortaa;-inkscape-font-specification:'Comfortaa Bold';text-align:end;letter-spacing:4.49792px;text-anchor:end;fill:#f0f0f0;stroke-width:0.627317"
         d="m 12.048769,71.386215 q -0.294924,0 -0.496008,-0.201084 -0.201084,-0.201084 -0.201084,-0.496007 v -9.075591 q 0,-0.308329 0.201084,-0.496007 0.201084,-0.201084 0.496008,-0.201084 H 18.1081 q 0.308328,0 0.496007,0.187678 0.187678,0.174273 0.187678,0.469196 0,0.281518 -0.187678,0.455791 -0.187679,0.174272 -0.496007,0.174272 h -5.36224 v 3.257561 h 3.847407 q 0.308329,0 0.496007,0.187679 0.187678,0.174272 0.187678,0.45579 0,0.281518 -0.187678,0.469196 -0.187678,0.174273 -0.496007,0.174273 H 12.74586 v 3.3514 h 5.36224 q 0.308328,0 0.496007,0.174272 0.187678,0.174273 0.187678,0.455791 0,0.294923 -0.187678,0.482601 -0.187679,0.174273 -0.496007,0.174273 z m 15.530739,-0.01341 q -0.415574,0 -0.643469,-0.442385 l -2.841987,-5.992303 q -0.107245,-0.227895 -0.02681,-0.442385 0.09384,-0.227895 0.348545,-0.348546 0.227895,-0.12065 0.455791,-0.04022 0.2413,0.08043 0.361951,0.308328 l 2.654308,5.724191 h -0.643468 l 2.627497,-5.724191 q 0.120651,-0.227895 0.361951,-0.308328 0.254707,-0.08043 0.509413,0.04022 0.241301,0.107245 0.321735,0.33514 0.08043,0.227896 -0.02681,0.455791 l -2.841987,5.992303 q -0.201084,0.442385 -0.616657,0.442385 z m 12.541278,0.06703 q -1.112664,0 -1.984028,-0.469196 -0.857959,-0.482602 -1.353966,-1.313749 -0.482602,-0.844553 -0.482602,-1.930406 0,-1.09926 0.455791,-1.930407 0.469196,-0.844553 1.286937,-1.313749 0.817742,-0.482601 1.876784,-0.482601 1.045637,0 1.796351,0.469196 0.750713,0.45579 1.139476,1.273532 0.402168,0.804336 0.402168,1.863378 0,0.254707 -0.174273,0.428979 -0.174273,0.160868 -0.442385,0.160868 h -5.402457 v -1.072448 h 5.36224 l -0.549629,0.375356 q -0.01341,-0.67028 -0.268112,-1.193098 -0.254707,-0.536224 -0.723903,-0.844553 -0.469196,-0.308329 -1.139476,-0.308329 -0.764119,0 -1.313748,0.33514 -0.536224,0.33514 -0.817742,0.924987 -0.281518,0.576441 -0.281518,1.313749 0,0.737307 0.33514,1.313748 0.33514,0.576441 0.924987,0.911581 0.589846,0.33514 1.353965,0.33514 0.415574,0 0.844553,-0.147462 0.442385,-0.160867 0.710497,-0.361951 0.201084,-0.147461 0.428979,-0.147461 0.241301,-0.01341 0.415574,0.134056 0.227895,0.201084 0.2413,0.442384 0.01341,0.241301 -0.214489,0.415574 -0.455791,0.361951 -1.139476,0.589846 -0.67028,0.227896 -1.286938,0.227896 z M 50.155223,66.8015 q 0,-0.804336 0.388763,-1.434399 0.402168,-0.643469 1.072448,-1.018826 0.67028,-0.375356 1.474616,-0.375356 0.804336,0 1.193098,0.268112 0.402168,0.254706 0.308329,0.616657 -0.04022,0.187679 -0.160868,0.294923 -0.107244,0.09384 -0.254706,0.120651 -0.147461,0.02681 -0.321734,-0.01341 -0.857959,-0.174273 -1.541644,-0.02681 -0.683686,0.147462 -1.085854,0.54963 -0.388762,0.402168 -0.388762,1.018825 z m 0.01341,4.584715 q -0.321735,0 -0.496007,-0.160867 -0.174273,-0.174273 -0.174273,-0.509413 v -5.992303 q 0,-0.321734 0.174273,-0.496007 0.174272,-0.174273 0.496007,-0.174273 0.33514,0 0.496007,0.174273 0.174273,0.160867 0.174273,0.496007 v 5.992303 q 0,0.321735 -0.174273,0.496007 -0.160867,0.174273 -0.496007,0.174273 z m 12.863003,0.05362 q -0.978609,0 -1.756133,-0.482602 -0.777525,-0.496007 -1.233316,-1.327154 -0.442384,-0.844553 -0.442384,-1.903595 0,-1.059043 0.482601,-1.903596 0.496007,-0.844552 1.327155,-1.327154 0.844552,-0.496007 1.890189,-0.496007 1.045637,0 1.876784,0.496007 0.831147,0.482602 1.313749,1.327154 0.496007,0.844553 0.496007,1.903596 H 66.46347 q 0,1.059042 -0.455791,1.903595 -0.442384,0.831147 -1.219909,1.327154 -0.777525,0.482602 -1.756134,0.482602 z m 0.268112,-1.206504 q 0.683686,0 1.21991,-0.321735 0.536224,-0.33514 0.844553,-0.898175 0.308328,-0.576441 0.308328,-1.286937 0,-0.723903 -0.308328,-1.286938 -0.308329,-0.576441 -0.844553,-0.898175 -0.536224,-0.33514 -1.21991,-0.33514 -0.67028,0 -1.219909,0.33514 -0.536224,0.321734 -0.857959,0.898175 -0.308329,0.563035 -0.308329,1.286938 0,0.710496 0.308329,1.286937 0.321735,0.563035 0.857959,0.898175 0.549629,0.321735 1.219909,0.321735 z m 3.002854,1.166287 q -0.294923,0 -0.496007,-0.187679 -0.187678,-0.201084 -0.187678,-0.496007 v -2.051057 l 0.254706,-1.420993 1.112665,0.482602 v 2.989448 q 0,0.294923 -0.201084,0.496007 -0.187678,0.187679 -0.482602,0.187679 z m 8.961974,-0.01341 q -0.589847,0 -1.045637,-0.321734 -0.455791,-0.321735 -0.710497,-0.871364 -0.254706,-0.563035 -0.254706,-1.286938 v -7.319457 q 0,-0.294923 0.187678,-0.482602 0.187678,-0.187678 0.482602,-0.187678 0.294923,0 0.482601,0.187678 0.187679,0.187679 0.187679,0.482602 v 7.319457 q 0,0.496007 0.187678,0.817742 0.187678,0.321734 0.482602,0.321734 h 0.335139 q 0.268112,0 0.42898,0.187679 0.174272,0.187678 0.174272,0.482601 0,0.294923 -0.254706,0.482602 -0.254706,0.187678 -0.656874,0.187678 z m 9.699277,0.05362 q -1.045637,0 -1.89019,-0.482602 -0.831147,-0.496007 -1.327154,-1.34056 -0.482602,-0.844553 -0.482602,-1.903595 0,-1.059042 0.442385,-1.89019 0.45579,-0.844552 1.233315,-1.327154 0.777525,-0.496007 1.756134,-0.496007 0.79093,0 1.46121,0.33514 0.67028,0.321734 1.12607,0.884769 v -3.619511 q 0,-0.308329 0.187679,-0.496008 0.201084,-0.187678 0.496007,-0.187678 0.308329,0 0.496007,0.187678 0.187679,0.187679 0.187679,0.496008 v 6.112953 q 0,1.059042 -0.496008,1.903595 -0.482601,0.844553 -1.313748,1.34056 -0.831148,0.482602 -1.876784,0.482602 z m 0,-1.206504 q 0.683685,0 1.219909,-0.321735 0.536224,-0.33514 0.844553,-0.911581 0.308329,-0.57644 0.308329,-1.286937 0,-0.723902 -0.308329,-1.286938 -0.308329,-0.563035 -0.844553,-0.884769 -0.536224,-0.33514 -1.219909,-0.33514 -0.67028,0 -1.21991,0.33514 -0.536224,0.321734 -0.857958,0.884769 -0.308329,0.563036 -0.308329,1.286938 0,0.710497 0.308329,1.286937 0.321734,0.576441 0.857958,0.911581 0.54963,0.321735 1.21991,0.321735 z m 13.922042,1.206504 q -1.085853,0 -1.917,-0.469196 -0.831147,-0.482602 -1.313749,-1.313749 -0.469196,-0.844553 -0.469196,-1.930406 0,-1.09926 0.469196,-1.930407 0.482602,-0.844553 1.313749,-1.313749 0.831147,-0.482601 1.917,-0.482601 1.072448,0 1.903595,0.482601 0.83114,0.469196 1.30034,1.313749 0.4826,0.831147 0.4826,1.930407 0,1.085853 -0.46919,1.930406 -0.4692,0.831147 -1.30035,1.313749 -0.831141,0.469196 -1.916995,0.469196 z m 0,-1.206504 q 0.697092,0 1.233315,-0.321735 0.53622,-0.321734 0.83114,-0.884769 0.30833,-0.563036 0.30833,-1.300343 0,-0.737308 -0.30833,-1.300344 -0.29492,-0.57644 -0.83114,-0.898175 -0.536223,-0.321734 -1.233315,-0.321734 -0.697091,0 -1.233315,0.321734 -0.536224,0.321735 -0.844552,0.898175 -0.308329,0.563036 -0.308329,1.300344 0,0.737307 0.308329,1.300343 0.308328,0.563035 0.844552,0.884769 0.536224,0.321735 1.233315,0.321735 z m 19.478995,1.152881 q -0.29492,0 -0.496,-0.201084 -0.20109,-0.201084 -0.20109,-0.496007 v -9.075591 q 0,-0.308329 0.20109,-0.496007 0.20108,-0.201084 0.496,-0.201084 0.40217,0 0.61666,0.375357 l 4.19595,8.405311 h -0.42898 l 4.08871,-8.405311 q 0.21449,-0.375357 0.61666,-0.375357 0.29492,0 0.49601,0.201084 0.20108,0.187678 0.20108,0.496007 v 9.075591 q 0,0.294923 -0.21449,0.496007 -0.20108,0.201084 -0.4826,0.201084 -0.29492,0 -0.49601,-0.201084 -0.20108,-0.201084 -0.20108,-0.496007 v -7.145185 l 0.26811,-0.06703 -3.51227,7.158591 q -0.22789,0.348545 -0.60325,0.348545 -0.44238,0 -0.64347,-0.415573 l -3.47205,-6.957507 0.26811,-0.06703 v 7.145185 q 0,0.294923 -0.20108,0.496007 -0.20108,0.201084 -0.49601,0.201084 z m 19.88756,0.05362 q -0.97861,0 -1.75614,-0.482602 -0.77752,-0.496007 -1.23331,-1.327154 -0.44239,-0.844553 -0.44239,-1.903595 0,-1.059043 0.4826,-1.903596 0.49601,-0.844552 1.32716,-1.327154 0.84455,-0.496007 1.89019,-0.496007 1.04563,0 1.87678,0.496007 0.83115,0.482602 1.31375,1.327154 0.49601,0.844553 0.49601,1.903596 h -0.52282 q 0,1.059042 -0.45579,1.903595 -0.44239,0.831147 -1.21991,1.327154 -0.77753,0.482602 -1.75613,0.482602 z m 0.26811,-1.206504 q 0.68368,0 1.21991,-0.321735 0.53622,-0.33514 0.84455,-0.898175 0.30833,-0.576441 0.30833,-1.286937 0,-0.723903 -0.30833,-1.286938 -0.30833,-0.576441 -0.84455,-0.898175 -0.53623,-0.33514 -1.21991,-0.33514 -0.67028,0 -1.21991,0.33514 -0.53623,0.321734 -0.85796,0.898175 -0.30833,0.563035 -0.30833,1.286938 0,0.710496 0.30833,1.286937 0.32173,0.563035 0.85796,0.898175 0.54963,0.321735 1.21991,0.321735 z m 3.00285,1.166287 q -0.29492,0 -0.496,-0.187679 -0.18768,-0.201084 -0.18768,-0.496007 v -2.051057 l 0.2547,-1.420993 1.11267,0.482602 v 2.989448 q 0,0.294923 -0.20109,0.496007 -0.18767,0.187679 -0.4826,0.187679 z m 7.87613,-4.598121 q 0,-0.804336 0.38876,-1.434399 0.40217,-0.643469 1.07245,-1.018826 0.67028,-0.375356 1.47461,-0.375356 0.80434,0 1.1931,0.268112 0.40217,0.254706 0.30833,0.616657 -0.0402,0.187679 -0.16087,0.294923 -0.10724,0.09384 -0.2547,0.120651 -0.14747,0.02681 -0.32174,-0.01341 -0.85796,-0.174273 -1.54164,-0.02681 -0.68369,0.147462 -1.08586,0.54963 -0.38876,0.402168 -0.38876,1.018825 z m 0.0134,4.584715 q -0.32173,0 -0.49601,-0.160867 -0.17427,-0.174273 -0.17427,-0.509413 v -5.992303 q 0,-0.321734 0.17427,-0.496007 0.17428,-0.174273 0.49601,-0.174273 0.33514,0 0.49601,0.174273 0.17427,0.160867 0.17427,0.496007 v 5.992303 q 0,0.321735 -0.17427,0.496007 -0.16087,0.174273 -0.49601,0.174273 z m 13.01047,0 q -0.67028,0 -1.20651,-0.33514 -0.53622,-0.348545 -0.84455,-0.938392 -0.30833,-0.589846 -0.30833,-1.327154 v -6.394471 q 0,-0.294923 0.18768,-0.482602 0.18768,-0.187678 0.4826,-0.187678 0.29492,0 0.4826,0.187678 0.18768,0.187679 0.18768,0.482602 v 6.394471 q 0,0.536224 0.29492,0.898175 0.29493,0.361951 0.72391,0.361951 h 0.45579 q 0.2413,0 0.40216,0.187679 0.17428,0.187678 0.17428,0.482601 0,0.294923 -0.2279,0.482602 -0.21449,0.187678 -0.56303,0.187678 z m -2.97605,-5.911869 q -0.28151,0 -0.45579,-0.160867 -0.17427,-0.160868 -0.17427,-0.402168 0,-0.268112 0.17427,-0.42898 0.17428,-0.160867 0.45579,-0.160867 h 3.0967 q 0.28151,0 0.45579,0.160867 0.17427,0.160868 0.17427,0.42898 0,0.2413 -0.17427,0.402168 -0.17428,0.160867 -0.45579,0.160867 z m 10.99964,5.911869 q -0.29492,0 -0.49601,-0.187678 -0.18768,-0.201084 -0.18768,-0.496007 v -5.965492 q 0,-0.308329 0.18768,-0.496007 0.20109,-0.187679 0.49601,-0.187679 0.30833,0 0.49601,0.187679 0.18767,0.187678 0.18767,0.496007 v 5.965492 q 0,0.294923 -0.18767,0.496007 -0.18768,0.187678 -0.49601,0.187678 z m 0,-8.525961 q -0.36195,0 -0.63006,-0.254707 -0.25471,-0.268112 -0.25471,-0.630063 0,-0.361951 0.25471,-0.616657 0.26811,-0.268112 0.63006,-0.268112 0.36195,0 0.61666,0.268112 0.26811,0.254706 0.26811,0.616657 0,0.361951 -0.26811,0.630063 -0.25471,0.254707 -0.61666,0.254707 z m 13.92205,8.539367 q -0.29493,0 -0.49601,-0.187679 -0.18768,-0.201084 -0.18768,-0.496007 v -3.297777 q 0,-0.764119 -0.28152,-1.246721 -0.28151,-0.482602 -0.76412,-0.710497 -0.46919,-0.241301 -1.08585,-0.241301 -0.56303,0 -1.01882,0.227896 -0.4558,0.227895 -0.72391,0.616657 -0.26811,0.375357 -0.26811,0.871364 h -0.84455 q 0,-0.844553 0.40217,-1.501427 0.41557,-0.67028 1.12607,-1.059042 0.71049,-0.388763 1.59526,-0.388763 0.92499,0 1.64889,0.402168 0.73731,0.388763 1.15288,1.152882 0.42898,0.764119 0.42898,1.876784 v 3.297777 q 0,0.294923 -0.20108,0.496007 -0.18768,0.187679 -0.4826,0.187679 z m -5.5097,0 q -0.29493,0 -0.49601,-0.187679 -0.18768,-0.201084 -0.18768,-0.496007 v -5.978897 q 0,-0.308329 0.18768,-0.496007 0.20108,-0.187679 0.49601,-0.187679 0.30832,0 0.496,0.187679 0.18768,0.187678 0.18768,0.496007 v 5.978897 q 0,0.294923 -0.18768,0.496007 -0.18768,0.187679 -0.496,0.187679 z m 15.62456,0.04022 q -0.93839,0 -1.74273,-0.281518 -0.79093,-0.294923 -1.23332,-0.737308 -0.20108,-0.21449 -0.17427,-0.482602 0.0402,-0.281517 0.26811,-0.45579 0.26812,-0.21449 0.52282,-0.174273 0.26811,0.02681 0.45579,0.227895 0.2279,0.254707 0.7239,0.482602 0.50942,0.21449 1.12608,0.21449 0.77752,0 1.17969,-0.254707 0.41557,-0.254706 0.42898,-0.656874 0.0134,-0.402168 -0.38877,-0.697091 -0.38876,-0.294923 -1.43439,-0.482602 -1.35397,-0.268112 -1.97063,-0.804336 -0.60325,-0.536224 -0.60325,-1.313749 0,-0.683685 0.40217,-1.12607 0.40217,-0.45579 1.03223,-0.67028 0.63006,-0.227895 1.31375,-0.227895 0.88477,0 1.56845,0.281517 0.68369,0.281518 1.08586,0.777525 0.18768,0.21449 0.17427,0.455791 -0.0134,0.227895 -0.2279,0.388762 -0.21448,0.147462 -0.50941,0.09384 -0.29492,-0.05362 -0.49601,-0.241301 -0.33514,-0.321734 -0.7239,-0.442384 -0.38876,-0.120651 -0.89817,-0.120651 -0.58985,0 -1.00542,0.201084 -0.40217,0.201084 -0.40217,0.589847 0,0.2413 0.12065,0.442384 0.13406,0.187679 0.50941,0.348546 0.37536,0.147462 1.09926,0.294923 1.00542,0.201084 1.58186,0.509413 0.58985,0.308329 0.84456,0.723902 0.2547,0.402168 0.2547,0.938392 0,0.616658 -0.33514,1.112665 -0.32173,0.496007 -0.9652,0.79093 -0.63006,0.294924 -1.58186,0.294923 z"
         id="text5410"
         aria-label="Everaldo Martins" /><path
         style="fill:#f0f0f0;fill-opacity:1;stroke-width:0.461278;stroke-dasharray:0.922562, 0.922562;stroke-opacity:0.464503"
         d="m 76.56482,45.501948 -0.245936,6.512969 c -5.270165,2.291062 -14.453128,2.969835 -19.56208,3.102646 H 11.107161 L 10.970936,17.221824 H 57.896698 C 79.8954,18.136891 88.22963,24.869123 90.0038,33.683822 c 0,0 -0.361769,8.901562 -0.18998,15.095463 l 49.47433,0.173006 -0.0537,6.131875 -58.72974,0.0334 0.472982,-21.489364 C 79.477224,27.273295 72.99378,22.840207 50.867336,23.150668 l -31.203604,0.0031 -0.03137,26.060188 C 51.815183,48.5819 66.108307,51.334579 76.564817,43.914491 Z"
         id="path1"
         sodipodi:nodetypes="ccccccccccccccccc" /><path
         style="fill:#fd5401;fill-opacity:1;stroke-width:0.461278;stroke-dasharray:0.922562, 0.922562;stroke-opacity:0.464503"
         d="m 79.035794,17.0487 9.752996,6.103707 45.75611,0.03977 3.34931,1.046728 21.71341,20.449867 6.68466,-0.05178 23.16916,-21.856975 c 0.27294,-0.133059 0.46407,-0.06628 0.58725,0.0048 l -0.0723,32.277207 h 7.86039 l -0.0272,-38.039189 -12.23621,0.06565 -22.54357,20.600039 -22.27566,-20.639808 z"
         id="path2"
         sodipodi:nodetypes="ccccccccccccccc" /><path
         id="rect2"
         style="fill:#fd5401;fill-opacity:1;stroke-width:0.45195;stroke-dasharray:0.903901, 0.903901;stroke-opacity:0.464503"
         d="m 94.499115,32.036201 h 40.172495 v 6.118217 H 94.499115 Z"
         sodipodi:nodetypes="ccccc" /></g></g></svg>
